<mxfile host="Electron" modified="2025-05-21T13:59:26.381Z" agent="Mozilla/5.0 (Windows NT 10.0; Win64; x64) AppleWebKit/537.36 (KHTML, like Gecko) draw.io/24.2.5 Chrome/120.0.6099.109 Electron/28.1.0 Safari/537.36" etag="90g5h4ar2x_aDpGlNTMk" version="24.2.5" type="device">
  <diagram name="Seite-1" id="oAxXlop-ryeILSecFYtM">
    <mxGraphModel dx="1195" dy="703" grid="1" gridSize="10" guides="1" tooltips="1" connect="1" arrows="1" fold="1" page="1" pageScale="1" pageWidth="1169" pageHeight="827" math="0" shadow="0">
      <root>
        <mxCell id="0" />
        <mxCell id="1" parent="0" />
        <mxCell id="b_zlL-A4tNaL3229LXv--26" value="" style="rounded=0;whiteSpace=wrap;html=1;" parent="1" vertex="1">
          <mxGeometry x="370" y="20" width="680" height="666" as="geometry" />
        </mxCell>
        <mxCell id="5uxO7OD98EAqJdasAKFT-19" value="Nutzer einladen" style="ellipse;whiteSpace=wrap;html=1;" parent="1" vertex="1">
          <mxGeometry x="660" y="106" width="140" height="70" as="geometry" />
        </mxCell>
        <mxCell id="b_zlL-A4tNaL3229LXv--29" style="rounded=0;orthogonalLoop=1;jettySize=auto;html=1;entryX=0;entryY=0.5;entryDx=0;entryDy=0;" parent="1" source="5uxO7OD98EAqJdasAKFT-1" target="b_zlL-A4tNaL3229LXv--7" edge="1">
          <mxGeometry relative="1" as="geometry" />
        </mxCell>
        <mxCell id="b_zlL-A4tNaL3229LXv--30" style="rounded=0;orthogonalLoop=1;jettySize=auto;html=1;entryX=0;entryY=0.5;entryDx=0;entryDy=0;" parent="1" source="5uxO7OD98EAqJdasAKFT-1" target="b_zlL-A4tNaL3229LXv--1" edge="1">
          <mxGeometry relative="1" as="geometry" />
        </mxCell>
        <mxCell id="b_zlL-A4tNaL3229LXv--31" style="rounded=0;orthogonalLoop=1;jettySize=auto;html=1;entryX=0;entryY=0.5;entryDx=0;entryDy=0;" parent="1" source="5uxO7OD98EAqJdasAKFT-1" target="b_zlL-A4tNaL3229LXv--6" edge="1">
          <mxGeometry relative="1" as="geometry" />
        </mxCell>
        <mxCell id="b_zlL-A4tNaL3229LXv--32" style="rounded=0;orthogonalLoop=1;jettySize=auto;html=1;entryX=0;entryY=0.5;entryDx=0;entryDy=0;" parent="1" source="5uxO7OD98EAqJdasAKFT-1" target="b_zlL-A4tNaL3229LXv--2" edge="1">
          <mxGeometry relative="1" as="geometry" />
        </mxCell>
        <mxCell id="-AXBNw_CY_lj8qYDu66l-4" style="rounded=0;orthogonalLoop=1;jettySize=auto;html=1;entryX=0;entryY=0.5;entryDx=0;entryDy=0;" edge="1" parent="1" source="5uxO7OD98EAqJdasAKFT-1" target="-AXBNw_CY_lj8qYDu66l-1">
          <mxGeometry relative="1" as="geometry" />
        </mxCell>
        <mxCell id="5uxO7OD98EAqJdasAKFT-1" value="Hauptakteur" style="shape=umlActor;verticalLabelPosition=bottom;verticalAlign=top;html=1;" parent="1" vertex="1">
          <mxGeometry x="250" y="266.5" width="30" height="60" as="geometry" />
        </mxCell>
        <mxCell id="b_zlL-A4tNaL3229LXv--23" style="edgeStyle=orthogonalEdgeStyle;rounded=0;orthogonalLoop=1;jettySize=auto;html=1;entryX=0;entryY=0.5;entryDx=0;entryDy=0;dashed=1;" parent="1" source="b_zlL-A4tNaL3229LXv--1" target="b_zlL-A4tNaL3229LXv--22" edge="1">
          <mxGeometry relative="1" as="geometry">
            <Array as="points">
              <mxPoint x="480" y="331" />
            </Array>
          </mxGeometry>
        </mxCell>
        <mxCell id="b_zlL-A4tNaL3229LXv--1" value="digitale Rechnung erstellen" style="ellipse;whiteSpace=wrap;html=1;" parent="1" vertex="1">
          <mxGeometry x="410" y="206" width="140" height="70" as="geometry" />
        </mxCell>
        <mxCell id="b_zlL-A4tNaL3229LXv--2" value="Rechnungshistorie&amp;nbsp;&lt;div&gt;einsehen&lt;/div&gt;" style="ellipse;whiteSpace=wrap;html=1;" parent="1" vertex="1">
          <mxGeometry x="410" y="466" width="140" height="70" as="geometry" />
        </mxCell>
        <mxCell id="b_zlL-A4tNaL3229LXv--9" style="edgeStyle=orthogonalEdgeStyle;rounded=0;orthogonalLoop=1;jettySize=auto;html=1;dashed=1;" parent="1" source="b_zlL-A4tNaL3229LXv--3" target="b_zlL-A4tNaL3229LXv--1" edge="1">
          <mxGeometry relative="1" as="geometry" />
        </mxCell>
        <mxCell id="b_zlL-A4tNaL3229LXv--3" value="Rechnung abfotografieren" style="ellipse;whiteSpace=wrap;html=1;" parent="1" vertex="1">
          <mxGeometry x="680" y="206" width="210" height="70" as="geometry" />
        </mxCell>
        <mxCell id="b_zlL-A4tNaL3229LXv--25" style="edgeStyle=orthogonalEdgeStyle;rounded=0;orthogonalLoop=1;jettySize=auto;html=1;entryX=0;entryY=0.5;entryDx=0;entryDy=0;dashed=1;" parent="1" source="b_zlL-A4tNaL3229LXv--6" target="b_zlL-A4tNaL3229LXv--22" edge="1">
          <mxGeometry relative="1" as="geometry">
            <Array as="points">
              <mxPoint x="480" y="331" />
            </Array>
          </mxGeometry>
        </mxCell>
        <mxCell id="b_zlL-A4tNaL3229LXv--6" value="Rechnungsstatus&amp;nbsp;&lt;div&gt;Ã¤ndern&lt;/div&gt;" style="ellipse;whiteSpace=wrap;html=1;" parent="1" vertex="1">
          <mxGeometry x="410" y="356" width="140" height="70" as="geometry" />
        </mxCell>
        <mxCell id="b_zlL-A4tNaL3229LXv--11" style="edgeStyle=orthogonalEdgeStyle;rounded=0;orthogonalLoop=1;jettySize=auto;html=1;entryX=0;entryY=0.5;entryDx=0;entryDy=0;dashed=1;" parent="1" source="b_zlL-A4tNaL3229LXv--7" target="5uxO7OD98EAqJdasAKFT-19" edge="1">
          <mxGeometry relative="1" as="geometry" />
        </mxCell>
        <mxCell id="b_zlL-A4tNaL3229LXv--7" value="Rechnung aufteilen" style="ellipse;whiteSpace=wrap;html=1;" parent="1" vertex="1">
          <mxGeometry x="410" y="106" width="140" height="70" as="geometry" />
        </mxCell>
        <mxCell id="b_zlL-A4tNaL3229LXv--10" value="&amp;lt;&amp;lt;extends&amp;gt;&amp;gt;" style="text;html=1;align=center;verticalAlign=middle;resizable=0;points=[];autosize=1;strokeColor=none;fillColor=none;" parent="1" vertex="1">
          <mxGeometry x="570" y="216" width="90" height="30" as="geometry" />
        </mxCell>
        <mxCell id="b_zlL-A4tNaL3229LXv--12" value="&amp;lt;&amp;lt;include&amp;gt;&amp;gt;" style="text;html=1;align=center;verticalAlign=middle;resizable=0;points=[];autosize=1;strokeColor=none;fillColor=none;" parent="1" vertex="1">
          <mxGeometry x="560" y="114" width="90" height="30" as="geometry" />
        </mxCell>
        <mxCell id="b_zlL-A4tNaL3229LXv--18" style="edgeStyle=orthogonalEdgeStyle;rounded=0;orthogonalLoop=1;jettySize=auto;html=1;entryX=1;entryY=0.5;entryDx=0;entryDy=0;dashed=1;" parent="1" source="b_zlL-A4tNaL3229LXv--13" target="b_zlL-A4tNaL3229LXv--2" edge="1">
          <mxGeometry relative="1" as="geometry" />
        </mxCell>
        <mxCell id="b_zlL-A4tNaL3229LXv--13" value="Rechnung einsehen&lt;div&gt;&lt;div&gt;&lt;br&gt;&lt;/div&gt;&lt;div&gt;&lt;b&gt;extension points&lt;/b&gt;&lt;/div&gt;&lt;div&gt;Rechnung vorhanden&lt;/div&gt;&lt;/div&gt;" style="ellipse;whiteSpace=wrap;html=1;" parent="1" vertex="1">
          <mxGeometry x="685" y="466" width="205" height="70" as="geometry" />
        </mxCell>
        <mxCell id="b_zlL-A4tNaL3229LXv--15" value="" style="line;strokeWidth=1;fillColor=none;align=left;verticalAlign=middle;spacingTop=-1;spacingLeft=3;spacingRight=3;rotatable=0;labelPosition=right;points=[];portConstraint=eastwest;strokeColor=inherit;" parent="1" vertex="1">
          <mxGeometry x="685" y="494" width="206" height="8" as="geometry" />
        </mxCell>
        <mxCell id="b_zlL-A4tNaL3229LXv--19" value="&amp;lt;&amp;lt;extends&amp;gt;&amp;gt;" style="text;html=1;align=center;verticalAlign=middle;resizable=0;points=[];autosize=1;strokeColor=none;fillColor=none;" parent="1" vertex="1">
          <mxGeometry x="580" y="476" width="90" height="30" as="geometry" />
        </mxCell>
        <mxCell id="b_zlL-A4tNaL3229LXv--20" value="&lt;p style=&quot;margin:0px;margin-top:4px;text-align:center;text-decoration:underline;&quot;&gt;&lt;/p&gt;&lt;p style=&quot;margin:0px;margin-left:8px;&quot;&gt;&lt;b&gt;Condition&lt;/b&gt;&lt;/p&gt;&lt;p style=&quot;margin:0px;margin-left:8px;&quot;&gt;mindestens eine Rechnung muss erstellt worden sein&lt;/p&gt;&lt;p style=&quot;margin:0px;margin-left:8px;&quot;&gt;&lt;b style=&quot;background-color: initial;&quot;&gt;extension point&lt;/b&gt;&lt;br&gt;&lt;/p&gt;&lt;p style=&quot;margin:0px;margin-left:8px;&quot;&gt;Rechnung vorhanden&lt;/p&gt;" style="verticalAlign=top;align=left;overflow=fill;html=1;whiteSpace=wrap;" parent="1" vertex="1">
          <mxGeometry x="685" y="566" width="300" height="70" as="geometry" />
        </mxCell>
        <mxCell id="b_zlL-A4tNaL3229LXv--21" style="edgeStyle=orthogonalEdgeStyle;rounded=0;orthogonalLoop=1;jettySize=auto;html=1;dashed=1;endArrow=none;endFill=0;" parent="1" source="b_zlL-A4tNaL3229LXv--20" edge="1">
          <mxGeometry relative="1" as="geometry">
            <mxPoint x="624" y="506" as="targetPoint" />
          </mxGeometry>
        </mxCell>
        <mxCell id="b_zlL-A4tNaL3229LXv--22" value="Rechnung speichern" style="ellipse;whiteSpace=wrap;html=1;" parent="1" vertex="1">
          <mxGeometry x="680" y="296" width="210" height="70" as="geometry" />
        </mxCell>
        <mxCell id="b_zlL-A4tNaL3229LXv--24" value="&amp;lt;&amp;lt;include&amp;gt;&amp;gt;" style="text;html=1;align=center;verticalAlign=middle;resizable=0;points=[];autosize=1;strokeColor=none;fillColor=none;" parent="1" vertex="1">
          <mxGeometry x="525" y="304" width="90" height="30" as="geometry" />
        </mxCell>
        <mxCell id="b_zlL-A4tNaL3229LXv--33" style="rounded=0;orthogonalLoop=1;jettySize=auto;html=1;entryX=0;entryY=0.5;entryDx=0;entryDy=0;" parent="1" source="b_zlL-A4tNaL3229LXv--27" target="b_zlL-A4tNaL3229LXv--2" edge="1">
          <mxGeometry relative="1" as="geometry" />
        </mxCell>
        <mxCell id="b_zlL-A4tNaL3229LXv--34" style="rounded=0;orthogonalLoop=1;jettySize=auto;html=1;" parent="1" source="b_zlL-A4tNaL3229LXv--27" target="b_zlL-A4tNaL3229LXv--6" edge="1">
          <mxGeometry relative="1" as="geometry" />
        </mxCell>
        <mxCell id="b_zlL-A4tNaL3229LXv--35" style="rounded=0;orthogonalLoop=1;jettySize=auto;html=1;entryX=0;entryY=0.5;entryDx=0;entryDy=0;" parent="1" source="b_zlL-A4tNaL3229LXv--27" target="b_zlL-A4tNaL3229LXv--1" edge="1">
          <mxGeometry relative="1" as="geometry" />
        </mxCell>
        <mxCell id="-AXBNw_CY_lj8qYDu66l-3" style="rounded=0;orthogonalLoop=1;jettySize=auto;html=1;entryX=0;entryY=0.5;entryDx=0;entryDy=0;" edge="1" parent="1" source="b_zlL-A4tNaL3229LXv--27" target="-AXBNw_CY_lj8qYDu66l-1">
          <mxGeometry relative="1" as="geometry" />
        </mxCell>
        <mxCell id="b_zlL-A4tNaL3229LXv--27" value="Hauptakteur" style="shape=umlActor;verticalLabelPosition=bottom;verticalAlign=top;html=1;" parent="1" vertex="1">
          <mxGeometry x="250" y="379.5" width="30" height="60" as="geometry" />
        </mxCell>
        <mxCell id="b_zlL-A4tNaL3229LXv--28" value="&lt;b&gt;&lt;font style=&quot;font-size: 19px;&quot;&gt;SharedBill&lt;/font&gt;&lt;/b&gt;" style="text;html=1;align=center;verticalAlign=middle;resizable=0;points=[];autosize=1;strokeColor=none;fillColor=none;" parent="1" vertex="1">
          <mxGeometry x="650" y="20" width="120" height="40" as="geometry" />
        </mxCell>
        <mxCell id="-AXBNw_CY_lj8qYDu66l-1" value="Rechnung lÃ¶schen" style="ellipse;whiteSpace=wrap;html=1;" vertex="1" parent="1">
          <mxGeometry x="410" y="580" width="140" height="70" as="geometry" />
        </mxCell>
      </root>
    </mxGraphModel>
  </diagram>
</mxfile>
